<svg width="88" height="88" viewBox="0 0 88 88" fill="none" xmlns="http://www.w3.org/2000/svg">
<path fill-rule="evenodd" clip-rule="evenodd" d="M44 4C22.0091 4 4 22.0091 4 44C4 65.9909 22.0091 84 44 84C65.9909 84 84 65.9909 84 44C84 22.0091 65.9909 4 44 4ZM0 44C0 19.8 19.8 0 44 0C68.2 0 88 19.8 88 44C88 68.2 68.2 88 44 88C19.8 88 0 68.2 0 44Z" fill="#0066FF"/>
<path d="M37.0341 55.7333C38.0517 51.8464 40.3344 46.1333 43.9995 46.1333C47.6624 46.1333 49.9472 51.8464 50.9627 55.7333H37.0341ZM37.0341 32.2667H50.9627C49.9472 36.1557 47.6624 41.8667 43.9995 41.8667C40.3344 41.8667 38.0517 36.1557 37.0341 32.2667ZM55.7328 55.7333H55.3488C54.6789 52.8128 52.9851 47.104 49.4416 44C52.9851 40.8939 54.6789 35.1893 55.3488 32.2667H55.7328C56.2986 32.2667 56.8412 32.0419 57.2413 31.6418C57.6414 31.2418 57.8661 30.6991 57.8661 30.1333C57.8621 29.6327 57.6796 29.15 57.3516 28.7719C57.0235 28.3937 56.5713 28.145 56.0763 28.0704L56.0869 28H31.912L31.9227 28.0683C31.4275 28.1434 30.9753 28.3925 30.6472 28.771C30.3192 29.1495 30.1368 29.6325 30.1328 30.1333C30.1328 30.6991 30.3576 31.2418 30.7577 31.6418C31.1577 32.0419 31.7004 32.2667 32.2661 32.2667H32.648C33.3157 35.1893 35.0117 40.8939 38.5552 44C35.0117 47.104 33.3157 52.8128 32.648 55.7333H32.2661C31.7004 55.7333 31.1577 55.9581 30.7577 56.3582C30.3576 56.7583 30.1328 57.3009 30.1328 57.8667C30.1328 58.9248 30.9136 59.7611 31.9227 59.9317L31.912 60H56.0869L56.0763 59.9317C56.5715 59.8566 57.0237 59.6075 57.3517 59.229C57.6798 58.8505 57.8622 58.3675 57.8661 57.8667C57.8661 57.3009 57.6414 56.7583 57.2413 56.3582C56.8412 55.9581 56.2986 55.7333 55.7328 55.7333Z" fill="#0066FF"/>
</svg>
